<?xml version="1.0" encoding="us-ascii" standalone="no"?><svg xmlns="http://www.w3.org/2000/svg" xmlns:xlink="http://www.w3.org/1999/xlink" contentStyleType="text/css" height="749px" preserveAspectRatio="none" style="width:838px;height:749px;background:#FFFFFF;" version="1.1" viewBox="0 0 838 749" width="838px" zoomAndPan="magnify"><defs/><g><!--class Mensagem--><g id="elem_Mensagem"><rect codeLine="2" fill="#F1F1F1" height="130.4414" id="Mensagem" rx="2.5" ry="2.5" style="stroke:#181818;stroke-width:0.5;" width="190" x="17.5" y="611.81"/><ellipse cx="71.25" cy="627.81" fill="#ADD1B2" rx="11" ry="11" style="stroke:#181818;stroke-width:1.0;"/><path d="M73.7231,633.9531 Q73.1421,634.2519 72.5029,634.4013 Q71.8638,634.5507 71.1582,634.5507 Q68.6514,634.5507 67.3315,632.8989 Q66.0117,631.247 66.0117,628.1259 Q66.0117,624.9965 67.3315,623.3447 Q68.6514,621.6928 71.1582,621.6928 Q71.8638,621.6928 72.5112,621.8422 Q73.1587,621.9916 73.7231,622.2905 L73.7231,625.0131 Q73.0923,624.4321 72.4988,624.1623 Q71.9053,623.8925 71.2744,623.8925 Q69.9297,623.8925 69.2449,624.9592 Q68.5601,626.0258 68.5601,628.1259 Q68.5601,630.2177 69.2449,631.2844 Q69.9297,632.351 71.2744,632.351 Q71.9053,632.351 72.4988,632.0812 Q73.0923,631.8115 73.7231,631.2304 Z " fill="#000000"/><text fill="#000000" font-family="sans-serif" font-size="14" lengthAdjust="spacing" textLength="74" x="91.75" y="633.101">Mensagem</text><line style="stroke:#181818;stroke-width:0.5;" x1="18.5" x2="206.5" y1="643.81" y2="643.81"/><rect fill="none" height="6" style="stroke:#C82930;stroke-width:1.0;" width="6" x="25.5" y="654.5541"/><text fill="#000000" font-family="sans-serif" font-size="14" lengthAdjust="spacing" textLength="126" x="37.5" y="661.3452">usuario : USUARIO</text><rect fill="none" height="6" style="stroke:#C82930;stroke-width:1.0;" width="6" x="25.5" y="671.0424"/><text fill="#000000" font-family="sans-serif" font-size="14" lengthAdjust="spacing" textLength="98" x="37.5" y="677.8334">texto : STRING</text><rect fill="none" height="6" style="stroke:#C82930;stroke-width:1.0;" width="6" x="25.5" y="687.5307"/><text fill="#000000" font-family="sans-serif" font-size="14" lengthAdjust="spacing" textLength="164" x="37.5" y="694.3217">timestamp : TIMESTAMP</text><line style="stroke:#181818;stroke-width:0.5;" x1="18.5" x2="206.5" y1="701.2748" y2="701.2748"/><ellipse cx="28.5" cy="715.019" fill="#84BE84" rx="3" ry="3" style="stroke:#038048;stroke-width:1.0;"/><text fill="#000000" font-family="sans-serif" font-size="14" lengthAdjust="spacing" textLength="32" x="37.5" y="718.81">get()</text><ellipse cx="28.5" cy="731.5073" fill="#84BE84" rx="3" ry="3" style="stroke:#038048;stroke-width:1.0;"/><text fill="#000000" font-family="sans-serif" font-size="14" lengthAdjust="spacing" textLength="30" x="37.5" y="735.2983">set()</text></g><!--class Chat--><g id="elem_Chat"><rect codeLine="10" fill="#F1F1F1" height="113.9531" id="Chat" rx="2.5" ry="2.5" style="stroke:#181818;stroke-width:0.5;" width="211" x="7" y="404.88"/><ellipse cx="92.25" cy="420.88" fill="#ADD1B2" rx="11" ry="11" style="stroke:#181818;stroke-width:1.0;"/><path d="M94.7231,427.0231 Q94.1421,427.3219 93.5029,427.4713 Q92.8638,427.6207 92.1582,427.6207 Q89.6514,427.6207 88.3315,425.9689 Q87.0117,424.317 87.0117,421.1959 Q87.0117,418.0665 88.3315,416.4147 Q89.6514,414.7628 92.1582,414.7628 Q92.8638,414.7628 93.5112,414.9122 Q94.1587,415.0616 94.7231,415.3605 L94.7231,418.0831 Q94.0923,417.5021 93.4988,417.2323 Q92.9053,416.9625 92.2744,416.9625 Q90.9297,416.9625 90.2449,418.0292 Q89.5601,419.0958 89.5601,421.1959 Q89.5601,423.2877 90.2449,424.3544 Q90.9297,425.421 92.2744,425.421 Q92.9053,425.421 93.4988,425.1512 Q94.0923,424.8815 94.7231,424.3004 Z " fill="#000000"/><text fill="#000000" font-family="sans-serif" font-size="14" lengthAdjust="spacing" textLength="32" x="112.75" y="426.171">Chat</text><line style="stroke:#181818;stroke-width:0.5;" x1="8" x2="217" y1="436.88" y2="436.88"/><rect fill="none" height="6" style="stroke:#C82930;stroke-width:1.0;" width="6" x="15" y="447.6241"/><text fill="#000000" font-family="sans-serif" font-size="14" lengthAdjust="spacing" textLength="185" x="27" y="454.4152">mensagem[] : MENSAGEM[]</text><line style="stroke:#181818;stroke-width:0.5;" x1="8" x2="217" y1="461.3683" y2="461.3683"/><ellipse cx="18" cy="475.1124" fill="#84BE84" rx="3" ry="3" style="stroke:#038048;stroke-width:1.0;"/><text fill="#000000" font-family="sans-serif" font-size="14" lengthAdjust="spacing" textLength="32" x="27" y="478.9034">get()</text><ellipse cx="18" cy="491.6007" fill="#84BE84" rx="3" ry="3" style="stroke:#038048;stroke-width:1.0;"/><text fill="#000000" font-family="sans-serif" font-size="14" lengthAdjust="spacing" textLength="30" x="27" y="495.3917">set()</text><ellipse cx="18" cy="508.089" fill="#84BE84" rx="3" ry="3" style="stroke:#038048;stroke-width:1.0;"/><text fill="#000000" font-family="sans-serif" font-size="14" lengthAdjust="spacing" textLength="126" x="27" y="511.88">enviarMensagem()</text></g><!--class Emergencia--><g id="elem_Emergencia"><rect codeLine="17" fill="#F1F1F1" height="163.418" id="Emergencia" rx="2.5" ry="2.5" style="stroke:#181818;stroke-width:0.5;" width="212" x="290.5" y="148.48"/><ellipse cx="352.25" cy="164.48" fill="#ADD1B2" rx="11" ry="11" style="stroke:#181818;stroke-width:1.0;"/><path d="M354.7231,170.6231 Q354.1421,170.9219 353.5029,171.0713 Q352.8638,171.2207 352.1582,171.2207 Q349.6514,171.2207 348.3315,169.5689 Q347.0117,167.917 347.0117,164.7959 Q347.0117,161.6665 348.3315,160.0147 Q349.6514,158.3628 352.1582,158.3628 Q352.8638,158.3628 353.5112,158.5122 Q354.1587,158.6616 354.7231,158.9605 L354.7231,161.6831 Q354.0923,161.1021 353.4988,160.8323 Q352.9053,160.5625 352.2744,160.5625 Q350.9297,160.5625 350.2449,161.6292 Q349.5601,162.6958 349.5601,164.7959 Q349.5601,166.8877 350.2449,167.9544 Q350.9297,169.021 352.2744,169.021 Q352.9053,169.021 353.4988,168.7512 Q354.0923,168.4815 354.7231,167.9004 Z " fill="#000000"/><text fill="#000000" font-family="sans-serif" font-size="14" lengthAdjust="spacing" textLength="80" x="372.75" y="169.771">Emergencia</text><line style="stroke:#181818;stroke-width:0.5;" x1="291.5" x2="501.5" y1="180.48" y2="180.48"/><rect fill="none" height="6" style="stroke:#C82930;stroke-width:1.0;" width="6" x="298.5" y="191.2241"/><text fill="#000000" font-family="sans-serif" font-size="14" lengthAdjust="spacing" textLength="89" x="310.5" y="198.0152">tipo : STRING</text><rect fill="none" height="6" style="stroke:#C82930;stroke-width:1.0;" width="6" x="298.5" y="207.7124"/><text fill="#000000" font-family="sans-serif" font-size="14" lengthAdjust="spacing" textLength="109" x="310.5" y="214.5034">ativa : BOOLEAN</text><rect fill="none" height="6" style="stroke:#C82930;stroke-width:1.0;" width="6" x="298.5" y="224.2007"/><text fill="#000000" font-family="sans-serif" font-size="14" lengthAdjust="spacing" textLength="186" x="310.5" y="230.9917">localizacao : LOCALIZACAO</text><rect fill="none" height="6" style="stroke:#C82930;stroke-width:1.0;" width="6" x="298.5" y="240.689"/><text fill="#000000" font-family="sans-serif" font-size="14" lengthAdjust="spacing" textLength="80" x="310.5" y="247.48">chat : CHAT</text><rect fill="none" height="6" style="stroke:#C82930;stroke-width:1.0;" width="6" x="298.5" y="257.1773"/><text fill="#000000" font-family="sans-serif" font-size="14" lengthAdjust="spacing" textLength="128" x="310.5" y="263.9683">equipe[] : EQUIPE[]</text><line style="stroke:#181818;stroke-width:0.5;" x1="291.5" x2="501.5" y1="270.9214" y2="270.9214"/><ellipse cx="301.5" cy="284.6655" fill="#84BE84" rx="3" ry="3" style="stroke:#038048;stroke-width:1.0;"/><text fill="#000000" font-family="sans-serif" font-size="14" lengthAdjust="spacing" textLength="32" x="310.5" y="288.4566">get()</text><ellipse cx="301.5" cy="301.1538" fill="#84BE84" rx="3" ry="3" style="stroke:#038048;stroke-width:1.0;"/><text fill="#000000" font-family="sans-serif" font-size="14" lengthAdjust="spacing" textLength="30" x="310.5" y="304.9448">set()</text></g><!--class Localizacao--><g id="elem_Localizacao"><rect codeLine="27" fill="#F1F1F1" height="179.9063" id="Localizacao" rx="2.5" ry="2.5" style="stroke:#181818;stroke-width:0.5;" width="182" x="253.5" y="371.9"/><ellipse cx="300.75" cy="387.9" fill="#ADD1B2" rx="11" ry="11" style="stroke:#181818;stroke-width:1.0;"/><path d="M303.2231,394.0431 Q302.6421,394.3419 302.0029,394.4913 Q301.3638,394.6407 300.6582,394.6407 Q298.1514,394.6407 296.8315,392.9889 Q295.5117,391.337 295.5117,388.2159 Q295.5117,385.0865 296.8315,383.4347 Q298.1514,381.7828 300.6582,381.7828 Q301.3638,381.7828 302.0112,381.9322 Q302.6587,382.0816 303.2231,382.3805 L303.2231,385.1031 Q302.5923,384.5221 301.9988,384.2523 Q301.4053,383.9825 300.7744,383.9825 Q299.4297,383.9825 298.7449,385.0492 Q298.0601,386.1158 298.0601,388.2159 Q298.0601,390.3077 298.7449,391.3744 Q299.4297,392.441 300.7744,392.441 Q301.4053,392.441 301.9988,392.1712 Q302.5923,391.9015 303.2231,391.3204 Z " fill="#000000"/><text fill="#000000" font-family="sans-serif" font-size="14" lengthAdjust="spacing" textLength="79" x="321.25" y="393.191">Localizacao</text><line style="stroke:#181818;stroke-width:0.5;" x1="254.5" x2="434.5" y1="403.9" y2="403.9"/><rect fill="none" height="6" style="stroke:#C82930;stroke-width:1.0;" width="6" x="261.5" y="414.6441"/><text fill="#000000" font-family="sans-serif" font-size="14" lengthAdjust="spacing" textLength="140" x="273.5" y="421.4352">logradouro : STRING</text><rect fill="none" height="6" style="stroke:#C82930;stroke-width:1.0;" width="6" x="261.5" y="431.1324"/><text fill="#000000" font-family="sans-serif" font-size="14" lengthAdjust="spacing" textLength="116" x="273.5" y="437.9234">numero : STRING</text><rect fill="none" height="6" style="stroke:#C82930;stroke-width:1.0;" width="6" x="261.5" y="447.6207"/><text fill="#000000" font-family="sans-serif" font-size="14" lengthAdjust="spacing" textLength="104" x="273.5" y="454.4117">bairro : STRING</text><rect fill="none" height="6" style="stroke:#C82930;stroke-width:1.0;" width="6" x="261.5" y="464.109"/><text fill="#000000" font-family="sans-serif" font-size="14" lengthAdjust="spacing" textLength="130" x="273.5" y="470.9">municipio : STRING</text><rect fill="none" height="6" style="stroke:#C82930;stroke-width:1.0;" width="6" x="261.5" y="480.5973"/><text fill="#000000" font-family="sans-serif" font-size="14" lengthAdjust="spacing" textLength="156" x="273.5" y="487.3883">complemento : STRING</text><rect fill="none" height="6" style="stroke:#C82930;stroke-width:1.0;" width="6" x="261.5" y="497.0855"/><text fill="#000000" font-family="sans-serif" font-size="14" lengthAdjust="spacing" textLength="86" x="273.5" y="503.8766">cep : STRING</text><line style="stroke:#181818;stroke-width:0.5;" x1="254.5" x2="434.5" y1="510.8297" y2="510.8297"/><ellipse cx="264.5" cy="524.5738" fill="#84BE84" rx="3" ry="3" style="stroke:#038048;stroke-width:1.0;"/><text fill="#000000" font-family="sans-serif" font-size="14" lengthAdjust="spacing" textLength="32" x="273.5" y="528.3648">get()</text><ellipse cx="264.5" cy="541.0621" fill="#84BE84" rx="3" ry="3" style="stroke:#038048;stroke-width:1.0;"/><text fill="#000000" font-family="sans-serif" font-size="14" lengthAdjust="spacing" textLength="30" x="273.5" y="544.8531">set()</text></g><!--class Estoque--><g id="elem_Estoque"><rect codeLine="38" fill="#F1F1F1" height="130.4414" id="Estoque" rx="2.5" ry="2.5" style="stroke:#181818;stroke-width:0.5;" width="121" x="642" y="164.97"/><ellipse cx="672.3" cy="180.97" fill="#ADD1B2" rx="11" ry="11" style="stroke:#181818;stroke-width:1.0;"/><path d="M674.7731,187.1131 Q674.1921,187.4119 673.5529,187.5613 Q672.9138,187.7107 672.2082,187.7107 Q669.7014,187.7107 668.3815,186.0589 Q667.0617,184.407 667.0617,181.2859 Q667.0617,178.1565 668.3815,176.5047 Q669.7014,174.8528 672.2082,174.8528 Q672.9138,174.8528 673.5612,175.0022 Q674.2087,175.1516 674.7731,175.4505 L674.7731,178.1731 Q674.1423,177.5921 673.5488,177.3223 Q672.9553,177.0525 672.3244,177.0525 Q670.9797,177.0525 670.2949,178.1192 Q669.6101,179.1858 669.6101,181.2859 Q669.6101,183.3777 670.2949,184.4444 Q670.9797,185.511 672.3244,185.511 Q672.9553,185.511 673.5488,185.2412 Q674.1423,184.9715 674.7731,184.3904 Z " fill="#000000"/><text fill="#000000" font-family="sans-serif" font-size="14" lengthAdjust="spacing" textLength="55" x="689.7" y="186.261">Estoque</text><line style="stroke:#181818;stroke-width:0.5;" x1="643" x2="762" y1="196.97" y2="196.97"/><rect fill="none" height="6" style="stroke:#C82930;stroke-width:1.0;" width="6" x="650" y="207.7141"/><text fill="#000000" font-family="sans-serif" font-size="14" lengthAdjust="spacing" textLength="95" x="662" y="214.5052">item[] : ITEM[]</text><line style="stroke:#181818;stroke-width:0.5;" x1="643" x2="762" y1="221.4583" y2="221.4583"/><ellipse cx="653" cy="235.2024" fill="#84BE84" rx="3" ry="3" style="stroke:#038048;stroke-width:1.0;"/><text fill="#000000" font-family="sans-serif" font-size="14" lengthAdjust="spacing" textLength="74" x="662" y="238.9934">cadastrar()</text><ellipse cx="653" cy="251.6907" fill="#84BE84" rx="3" ry="3" style="stroke:#038048;stroke-width:1.0;"/><text fill="#000000" font-family="sans-serif" font-size="14" lengthAdjust="spacing" textLength="55" x="662" y="255.4817">alterar()</text><ellipse cx="653" cy="268.179" fill="#84BE84" rx="3" ry="3" style="stroke:#038048;stroke-width:1.0;"/><text fill="#000000" font-family="sans-serif" font-size="14" lengthAdjust="spacing" textLength="67" x="662" y="271.97">remover()</text><ellipse cx="653" cy="284.6673" fill="#84BE84" rx="3" ry="3" style="stroke:#038048;stroke-width:1.0;"/><text fill="#000000" font-family="sans-serif" font-size="14" lengthAdjust="spacing" textLength="61" x="662" y="288.4583">acessar()</text></g><!--class Equipe--><g id="elem_Equipe"><rect codeLine="46" fill="#F1F1F1" height="97.4648" id="Equipe" rx="2.5" ry="2.5" style="stroke:#181818;stroke-width:0.5;" width="172" x="470.5" y="413.12"/><ellipse cx="528.75" cy="429.12" fill="#ADD1B2" rx="11" ry="11" style="stroke:#181818;stroke-width:1.0;"/><path d="M531.2231,435.2631 Q530.6421,435.5619 530.0029,435.7113 Q529.3638,435.8607 528.6582,435.8607 Q526.1514,435.8607 524.8315,434.2089 Q523.5117,432.557 523.5117,429.4359 Q523.5117,426.3065 524.8315,424.6547 Q526.1514,423.0028 528.6582,423.0028 Q529.3638,423.0028 530.0112,423.1522 Q530.6587,423.3016 531.2231,423.6005 L531.2231,426.3231 Q530.5923,425.7421 529.9988,425.4723 Q529.4053,425.2025 528.7744,425.2025 Q527.4297,425.2025 526.7449,426.2692 Q526.0601,427.3358 526.0601,429.4359 Q526.0601,431.5277 526.7449,432.5944 Q527.4297,433.661 528.7744,433.661 Q529.4053,433.661 529.9988,433.3912 Q530.5923,433.1215 531.2231,432.5404 Z " fill="#000000"/><text fill="#000000" font-family="sans-serif" font-size="14" lengthAdjust="spacing" textLength="47" x="549.25" y="434.411">Equipe</text><line style="stroke:#181818;stroke-width:0.5;" x1="471.5" x2="641.5" y1="445.12" y2="445.12"/><rect fill="none" height="6" style="stroke:#C82930;stroke-width:1.0;" width="6" x="478.5" y="455.8641"/><text fill="#000000" font-family="sans-serif" font-size="14" lengthAdjust="spacing" textLength="146" x="490.5" y="462.6552">usuario[] : USUARIO[]</text><line style="stroke:#181818;stroke-width:0.5;" x1="471.5" x2="641.5" y1="469.6083" y2="469.6083"/><ellipse cx="481.5" cy="483.3524" fill="#84BE84" rx="3" ry="3" style="stroke:#038048;stroke-width:1.0;"/><text fill="#000000" font-family="sans-serif" font-size="14" lengthAdjust="spacing" textLength="32" x="490.5" y="487.1434">get()</text><ellipse cx="481.5" cy="499.8407" fill="#84BE84" rx="3" ry="3" style="stroke:#038048;stroke-width:1.0;"/><text fill="#000000" font-family="sans-serif" font-size="14" lengthAdjust="spacing" textLength="30" x="490.5" y="503.6317">set()</text></g><!--class Item--><g id="elem_Item"><rect codeLine="53" fill="#F1F1F1" height="146.9297" id="Item" rx="2.5" ry="2.5" style="stroke:#181818;stroke-width:0.5;" width="154" x="677.5" y="388.39"/><ellipse cx="735.25" cy="404.39" fill="#ADD1B2" rx="11" ry="11" style="stroke:#181818;stroke-width:1.0;"/><path d="M737.7231,410.5331 Q737.1421,410.8319 736.5029,410.9813 Q735.8638,411.1307 735.1582,411.1307 Q732.6514,411.1307 731.3315,409.4789 Q730.0117,407.827 730.0117,404.7059 Q730.0117,401.5765 731.3315,399.9247 Q732.6514,398.2728 735.1582,398.2728 Q735.8638,398.2728 736.5112,398.4222 Q737.1587,398.5716 737.7231,398.8705 L737.7231,401.5931 Q737.0923,401.0121 736.4988,400.7423 Q735.9053,400.4725 735.2744,400.4725 Q733.9297,400.4725 733.2449,401.5392 Q732.5601,402.6058 732.5601,404.7059 Q732.5601,406.7977 733.2449,407.8644 Q733.9297,408.931 735.2744,408.931 Q735.9053,408.931 736.4988,408.6612 Q737.0923,408.3915 737.7231,407.8104 Z " fill="#000000"/><text fill="#000000" font-family="sans-serif" font-size="14" lengthAdjust="spacing" textLength="30" x="755.75" y="409.681">Item</text><line style="stroke:#181818;stroke-width:0.5;" x1="678.5" x2="830.5" y1="420.39" y2="420.39"/><rect fill="none" height="6" style="stroke:#C82930;stroke-width:1.0;" width="6" x="685.5" y="431.1341"/><text fill="#000000" font-family="sans-serif" font-size="14" lengthAdjust="spacing" textLength="101" x="697.5" y="437.9252">nome : STRING</text><rect fill="none" height="6" style="stroke:#C82930;stroke-width:1.0;" width="6" x="685.5" y="447.6224"/><text fill="#000000" font-family="sans-serif" font-size="14" lengthAdjust="spacing" textLength="113" x="697.5" y="454.4134">quantidade : INT</text><rect fill="none" height="6" style="stroke:#C82930;stroke-width:1.0;" width="6" x="685.5" y="464.1107"/><text fill="#000000" font-family="sans-serif" font-size="14" lengthAdjust="spacing" textLength="128" x="697.5" y="470.9017">nivelCritico : CHAR</text><rect fill="none" height="6" style="stroke:#C82930;stroke-width:1.0;" width="6" x="685.5" y="480.599"/><text fill="#000000" font-family="sans-serif" font-size="14" lengthAdjust="spacing" textLength="127" x="697.5" y="487.39">descricao : STRING</text><line style="stroke:#181818;stroke-width:0.5;" x1="678.5" x2="830.5" y1="494.3431" y2="494.3431"/><ellipse cx="688.5" cy="508.0873" fill="#84BE84" rx="3" ry="3" style="stroke:#038048;stroke-width:1.0;"/><text fill="#000000" font-family="sans-serif" font-size="14" lengthAdjust="spacing" textLength="32" x="697.5" y="511.8783">get()</text><ellipse cx="688.5" cy="524.5755" fill="#84BE84" rx="3" ry="3" style="stroke:#038048;stroke-width:1.0;"/><text fill="#000000" font-family="sans-serif" font-size="14" lengthAdjust="spacing" textLength="30" x="697.5" y="528.3666">set()</text></g><!--class Usuario--><g id="elem_Usuario"><rect codeLine="62" fill="#F1F1F1" height="130.4414" id="Usuario" rx="2.5" ry="2.5" style="stroke:#181818;stroke-width:0.5;" width="188" x="462.5" y="611.81"/><ellipse cx="525.75" cy="627.81" fill="#ADD1B2" rx="11" ry="11" style="stroke:#181818;stroke-width:1.0;"/><path d="M528.2231,633.9531 Q527.6421,634.2519 527.0029,634.4013 Q526.3638,634.5507 525.6582,634.5507 Q523.1514,634.5507 521.8315,632.8989 Q520.5117,631.247 520.5117,628.1259 Q520.5117,624.9965 521.8315,623.3447 Q523.1514,621.6928 525.6582,621.6928 Q526.3638,621.6928 527.0112,621.8422 Q527.6587,621.9916 528.2231,622.2905 L528.2231,625.0131 Q527.5923,624.4321 526.9988,624.1623 Q526.4053,623.8925 525.7744,623.8925 Q524.4297,623.8925 523.7449,624.9592 Q523.0601,626.0258 523.0601,628.1259 Q523.0601,630.2177 523.7449,631.2844 Q524.4297,632.351 525.7744,632.351 Q526.4053,632.351 526.9988,632.0812 Q527.5923,631.8115 528.2231,631.2304 Z " fill="#000000"/><text fill="#000000" font-family="sans-serif" font-size="14" lengthAdjust="spacing" textLength="53" x="546.25" y="633.101">Usuario</text><line style="stroke:#181818;stroke-width:0.5;" x1="463.5" x2="649.5" y1="643.81" y2="643.81"/><rect fill="none" height="6" style="stroke:#C82930;stroke-width:1.0;" width="6" x="470.5" y="654.5541"/><text fill="#000000" font-family="sans-serif" font-size="14" lengthAdjust="spacing" textLength="101" x="482.5" y="661.3452">nome : STRING</text><rect fill="none" height="6" style="stroke:#C82930;stroke-width:1.0;" width="6" x="470.5" y="671.0424"/><text fill="#000000" font-family="sans-serif" font-size="14" lengthAdjust="spacing" textLength="103" x="482.5" y="677.8334">senha : STRING</text><rect fill="none" height="6" style="stroke:#C82930;stroke-width:1.0;" width="6" x="470.5" y="687.5307"/><text fill="#000000" font-family="sans-serif" font-size="14" lengthAdjust="spacing" textLength="162" x="482.5" y="694.3217">comandante : BOOLEAN</text><line style="stroke:#181818;stroke-width:0.5;" x1="463.5" x2="649.5" y1="701.2748" y2="701.2748"/><ellipse cx="473.5" cy="715.019" fill="#84BE84" rx="3" ry="3" style="stroke:#038048;stroke-width:1.0;"/><text fill="#000000" font-family="sans-serif" font-size="14" lengthAdjust="spacing" textLength="32" x="482.5" y="718.81">get()</text><ellipse cx="473.5" cy="731.5073" fill="#84BE84" rx="3" ry="3" style="stroke:#038048;stroke-width:1.0;"/><text fill="#000000" font-family="sans-serif" font-size="14" lengthAdjust="spacing" textLength="30" x="482.5" y="735.2983">set()</text></g><!--class Orquestrador--><g id="elem_Orquestrador"><rect codeLine="71" fill="#F1F1F1" height="64.4883" id="Orquestrador" rx="2.5" ry="2.5" style="stroke:#181818;stroke-width:0.5;" width="125" x="434" y="7"/><ellipse cx="449" cy="23" fill="#ADD1B2" rx="11" ry="11" style="stroke:#181818;stroke-width:1.0;"/><path d="M451.4731,29.1431 Q450.8921,29.4419 450.2529,29.5913 Q449.6138,29.7407 448.9082,29.7407 Q446.4014,29.7407 445.0815,28.0889 Q443.7617,26.437 443.7617,23.3159 Q443.7617,20.1865 445.0815,18.5347 Q446.4014,16.8828 448.9082,16.8828 Q449.6138,16.8828 450.2612,17.0322 Q450.9087,17.1816 451.4731,17.4805 L451.4731,20.2031 Q450.8423,19.6221 450.2488,19.3523 Q449.6553,19.0825 449.0244,19.0825 Q447.6797,19.0825 446.9949,20.1492 Q446.3101,21.2158 446.3101,23.3159 Q446.3101,25.4077 446.9949,26.4744 Q447.6797,27.541 449.0244,27.541 Q449.6553,27.541 450.2488,27.2712 Q450.8423,27.0015 451.4731,26.4204 Z " fill="#000000"/><text fill="#000000" font-family="sans-serif" font-size="14" lengthAdjust="spacing" textLength="93" x="463" y="28.291">Orquestrador</text><line style="stroke:#181818;stroke-width:0.5;" x1="435" x2="558" y1="39" y2="39"/><line style="stroke:#181818;stroke-width:0.5;" x1="435" x2="558" y1="47" y2="47"/><ellipse cx="445" cy="60.7441" fill="#84BE84" rx="3" ry="3" style="stroke:#038048;stroke-width:1.0;"/><text fill="#000000" font-family="sans-serif" font-size="14" lengthAdjust="spacing" textLength="95" x="454" y="64.5352">orequestrar( )</text></g><!--link Orquestrador to Estoque--><g id="link_Orquestrador_Estoque"><path codeLine="75" d="M530.98,71.87 C561.1,99.5 601.1188,136.1938 637.2088,169.3038 " fill="none" id="Orquestrador-to-Estoque" style="stroke:#181818;stroke-width:1.0;"/><polygon fill="#181818" points="641.63,173.36,637.7022,164.3282,637.9456,169.9799,632.294,170.2232,641.63,173.36" style="stroke:#181818;stroke-width:1.0;"/><text fill="#000000" font-family="sans-serif" font-size="13" lengthAdjust="spacing" textLength="39" x="582.5" y="115.0484">utiliza</text></g><!--link Orquestrador to Emergencia--><g id="link_Orquestrador_Emergencia"><path codeLine="76" d="M479.76,71.87 C468.7,92.77 456.4678,115.8975 442.2078,142.8275 " fill="none" id="Orquestrador-to-Emergencia" style="stroke:#181818;stroke-width:1.0;"/><polygon fill="#181818" points="439.4,148.13,447.1467,142.0481,441.7398,143.7113,440.0767,138.3044,439.4,148.13" style="stroke:#181818;stroke-width:1.0;"/><text fill="#000000" font-family="sans-serif" font-size="13" lengthAdjust="spacing" textLength="39" x="462.5" y="115.0484">utiliza</text></g><!--reverse link Emergencia to Chat--><g id="link_Emergencia_Chat"><path codeLine="78" d="M287.0393,319.7057 C249.3493,350.1857 216.67,376.61 182.33,404.38 " fill="none" id="Emergencia-backto-Chat" style="stroke:#181818;stroke-width:1.0;"/><polygon fill="#181818" points="296.37,312.16,289.1894,312.8226,287.0393,319.7057,294.2199,319.0431,296.37,312.16" style="stroke:#181818;stroke-width:1.0;"/></g><!--reverse link Emergencia to Equipe--><g id="link_Emergencia_Equipe"><path codeLine="79" d="M459.7687,322.0067 C483.1587,355.5867 502.65,383.56 522.92,412.65 " fill="none" id="Emergencia-backto-Equipe" style="stroke:#181818;stroke-width:1.0;"/><polygon fill="#181818" points="452.91,312.16,453.0571,319.3696,459.7687,322.0067,459.6216,314.7971,452.91,312.16" style="stroke:#181818;stroke-width:1.0;"/></g><!--reverse link Emergencia to Localizacao--><g id="link_Emergencia_Localizacao"><path codeLine="80" d="M375.5192,323.8636 C371.1592,343.1136 369.14,352.04 364.7,371.63 " fill="none" id="Emergencia-backto-Localizacao" style="stroke:#181818;stroke-width:1.0;"/><polygon fill="#181818" points="378.17,312.16,372.9434,317.1282,375.5192,323.8636,380.7458,318.8954,378.17,312.16" style="stroke:#181818;stroke-width:1.0;"/></g><!--reverse link Estoque to Item--><g id="link_Estoque_Item"><path codeLine="81" d="M719.7705,307.4836 C726.2905,336.2736 731.35,358.61 738.07,388.27 " fill="none" id="Estoque-backto-Item" style="stroke:#181818;stroke-width:1.0;"/><polygon fill="#181818" points="717.12,295.78,714.544,302.5153,719.7705,307.4836,722.3465,300.7483,717.12,295.78" style="stroke:#181818;stroke-width:1.0;"/></g><!--reverse link Equipe to Usuario--><g id="link_Equipe_Usuario"><path codeLine="82" d="M556.5,522.96 C556.5,552.68 556.5,579.18 556.5,611.52 " fill="none" id="Equipe-backto-Usuario" style="stroke:#181818;stroke-width:1.0;"/><polygon fill="#181818" points="556.5,510.96,552.5,516.96,556.5,522.96,560.5,516.96,556.5,510.96" style="stroke:#181818;stroke-width:1.0;"/></g><!--reverse link Chat to Mensagem--><g id="link_Chat_Mensagem"><path codeLine="83" d="M112.5,531.14 C112.5,559.51 112.5,582.06 112.5,611.5 " fill="none" id="Chat-backto-Mensagem" style="stroke:#181818;stroke-width:1.0;"/><polygon fill="#181818" points="112.5,519.14,108.5,525.14,112.5,531.14,116.5,525.14,112.5,519.14" style="stroke:#181818;stroke-width:1.0;"/></g><!--SRC=[VLHDRwCm4BtpAtpijk8Fv5298jH52g6RaCjMFSoQKJeIjebjejLM-zyNE-PZeGqdysQOzvWtOzw0CQn0QU24Wdr4h7zYrfaED2csOSV3CTddPS0j_hOEFLJxVFSyW2JGM11j7wZo8ZjKIV7YOm_iXFRkMpWRV_uRHToJfkzWHq8H5Bo-zKMAR7T8dhFYzUtBAjSpoWk17jJFYsS2zGab9nWfBBKhwM3f0ZtuL9RRBDa5j54S6le37Dm7sp9DjldF94s6Bd2dVCFIxqaL43ntrA8Nd_quvY_P3UcZnksCvcEaFcceLQTNKcNN_z8A_GMarwZe975gQGgmGReIRODzjzSsScmNwJVLPyQgSuUZShB1lRoQESUX1cCrwB4CD1Rdxng5kk0ipj4O7v-eV7UNm-d9mdZUQFTK9hUp2PTAuAexvmwafHfg5yftrO1Bkc2JQhB4rTNu_H2gqN1DrqcPjVDcwuvXkpxL4Z23yXrM5Ya1ikuruc9clw0BVANkZN8kr4e7qWUcD0PKtp6V_LzQ73-E5czOPybDwYSfqvvDMT4ClOzZl-bBxEhf4fsjH3ImEznP5uKnSE-XWv6_Gnmmt07HFm00]--></g></svg>