<?xml version="1.0" encoding="us-ascii" standalone="no"?><svg xmlns="http://www.w3.org/2000/svg" xmlns:xlink="http://www.w3.org/1999/xlink" contentStyleType="text/css" height="597px" preserveAspectRatio="none" style="width:548px;height:597px;background:#FFFFFF;" version="1.1" viewBox="0 0 548 597" width="548px" zoomAndPan="magnify"><defs/><g><!--cluster DefesaCivil--><g id="cluster_DefesaCivil"><path d="M156.5,6 L239.5,6 A3.75,3.75 0 0 1 242,8.5 L249,28.4883 L371.27,28.4883 A2.5,2.5 0 0 1 373.77,30.9883 L373.77,587.5 A2.5,2.5 0 0 1 371.27,590 L156.5,590 A2.5,2.5 0 0 1 154,587.5 L154,8.5 A2.5,2.5 0 0 1 156.5,6 " fill="none" style="stroke:#000000;stroke-width:1.5;"/><line style="stroke:#000000;stroke-width:1.5;" x1="154" x2="249" y1="28.4883" y2="28.4883"/><text fill="#000000" font-family="sans-serif" font-size="14" font-weight="bold" lengthAdjust="spacing" textLength="82" x="158" y="21.5352">DefesaCivil</text></g><g id="elem_acessarEstoque"><ellipse cx="263.8923" cy="556.0005" fill="#F1F1F1" rx="77.4523" ry="17.8905" style="stroke:#181818;stroke-width:0.5;"/><text fill="#000000" font-family="sans-serif" font-size="14" lengthAdjust="spacing" textLength="112" x="207.8923" y="559.2915">Acessar estoque</text></g><g id="elem_cadastrarSuprimento"><ellipse cx="263.8853" cy="481.9971" fill="#F1F1F1" rx="93.8853" ry="21.1771" style="stroke:#181818;stroke-width:0.5;"/><text fill="#000000" font-family="sans-serif" font-size="14" lengthAdjust="spacing" textLength="150" x="188.8853" y="485.2881">Cadastrar suprimento</text></g><g id="elem_mensagem"><ellipse cx="263.8894" cy="406.9979" fill="#F1F1F1" rx="81.2394" ry="18.6479" style="stroke:#181818;stroke-width:0.5;"/><text fill="#000000" font-family="sans-serif" font-size="14" lengthAdjust="spacing" textLength="121" x="203.3894" y="410.2889">Enviar mensagem</text></g><g id="elem_receberAlerta"><ellipse cx="263.8883" cy="336.9997" fill="#F1F1F1" rx="71.7483" ry="16.7497" style="stroke:#181818;stroke-width:0.5;"/><text fill="#000000" font-family="sans-serif" font-size="14" lengthAdjust="spacing" textLength="98" x="214.0033" y="340.5268">Receber alerta</text></g><g id="elem_registrarEmergencia"><ellipse cx="263.8875" cy="264.0015" fill="#F1F1F1" rx="92.1075" ry="20.8215" style="stroke:#181818;stroke-width:0.5;"/><text fill="#000000" font-family="sans-serif" font-size="14" lengthAdjust="spacing" textLength="146" x="190.8875" y="267.2925">Registrar emergencia</text></g><g id="elem_fazerLogoff"><ellipse cx="263.893" cy="192.9966" fill="#F1F1F1" rx="66.183" ry="15.6366" style="stroke:#181818;stroke-width:0.5;"/><text fill="#000000" font-family="sans-serif" font-size="14" lengthAdjust="spacing" textLength="83" x="219.393" y="197.0142">Fazer logoff</text></g><g id="elem_fazerLogin"><ellipse cx="263.8872" cy="127.0014" fill="#F1F1F1" rx="64.1072" ry="15.2214" style="stroke:#181818;stroke-width:0.5;"/><text fill="#000000" font-family="sans-serif" font-size="14" lengthAdjust="spacing" textLength="77" x="222.3872" y="131.019">Fazer login</text></g><g id="elem_manterCadastro"><ellipse cx="263.8865" cy="58.9973" fill="#F1F1F1" rx="77.0365" ry="17.8073" style="stroke:#181818;stroke-width:0.5;"/><text fill="#000000" font-family="sans-serif" font-size="14" lengthAdjust="spacing" textLength="111" x="208.3865" y="62.2883">Manter cadastro</text></g><!--entity MembroEquipe--><g id="elem_MembroEquipe"><ellipse cx="58" cy="307.26" fill="#F1F1F1" rx="8" ry="8" style="stroke:#181818;stroke-width:0.5;"/><path d="M58,315.26 L58,342.26 M45,323.26 L71,323.26 M58,342.26 L45,357.26 M58,342.26 L71,357.26 " fill="none" style="stroke:#181818;stroke-width:0.5;"/><text fill="#000000" font-family="sans-serif" font-size="14" lengthAdjust="spacing" textLength="104" x="6" y="372.2952">MembroEquipe</text></g><!--entity MembroComando--><g id="elem_MembroComando"><ellipse cx="479.77" cy="234.26" fill="#F1F1F1" rx="8" ry="8" style="stroke:#181818;stroke-width:0.5;"/><path d="M479.77,242.26 L479.77,269.26 M466.77,250.26 L492.77,250.26 M479.77,269.26 L466.77,284.26 M479.77,269.26 L492.77,284.26 " fill="none" style="stroke:#181818;stroke-width:0.5;"/><text fill="#000000" font-family="sans-serif" font-size="14" lengthAdjust="spacing" textLength="124" x="417.77" y="299.2952">MembroComando</text></g><!--link MembroEquipe to fazerLogin--><g id="link_MembroEquipe_fazerLogin"><path d="M68.02,298.41 C79.43,258.09 102.99,195.83 146,160 C162.61,146.17 178.8009,139.4573 199.2709,134.7773 " fill="none" id="MembroEquipe-to-fazerLogin" style="stroke:#181818;stroke-width:1.0;"/><polygon fill="#181818" points="205.12,133.44,195.4549,131.5465,200.2458,134.5544,197.2379,139.3453,205.12,133.44" style="stroke:#181818;stroke-width:1.0;"/></g><!--link MembroEquipe to fazerLogoff--><g id="link_MembroEquipe_fazerLogoff"><path d="M80.53,298.38 C95.85,274.27 118.54,244.41 146,226 C164.04,213.91 180.6454,207.5993 201.0354,202.7093 " fill="none" id="MembroEquipe-to-fazerLogoff" style="stroke:#181818;stroke-width:1.0;"/><polygon fill="#181818" points="206.87,201.31,197.1853,199.5192,202.0079,202.4761,199.051,207.2986,206.87,201.31" style="stroke:#181818;stroke-width:1.0;"/></g><!--link MembroEquipe to receberAlerta--><g id="link_MembroEquipe_receberAlerta"><path d="M110.45,337 C135.1,337 159.03,337 185.82,337 " fill="none" id="MembroEquipe-to-receberAlerta" style="stroke:#181818;stroke-width:1.0;"/><polygon fill="#181818" points="191.82,337,182.82,333,186.82,337,182.82,341,191.82,337" style="stroke:#181818;stroke-width:1.0;"/></g><!--link MembroEquipe to acessarEstoque--><g id="link_MembroEquipe_acessarEstoque"><path d="M67.3,375.43 C78.28,417.15 101.65,482.88 146,521 C160.38,533.36 173.2211,539.7008 191.3411,544.8808 " fill="none" id="MembroEquipe-to-acessarEstoque" style="stroke:#181818;stroke-width:1.0;"/><polygon fill="#181818" points="197.11,546.53,189.5561,540.2103,192.3026,545.1557,187.3572,547.9022,197.11,546.53" style="stroke:#181818;stroke-width:1.0;"/></g><!--link MembroEquipe to mensagem--><g id="link_MembroEquipe_mensagem"><path d="M110.29,357.77 C121.97,362.29 134.36,366.94 146,371 C167.45,378.48 185.6461,384.2657 206.2461,390.4857 " fill="none" id="MembroEquipe-to-mensagem" style="stroke:#181818;stroke-width:1.0;"/><polygon fill="#181818" points="211.99,392.22,204.5304,385.7893,207.2034,390.7747,202.218,393.4478,211.99,392.22" style="stroke:#181818;stroke-width:1.0;"/></g><!--reverse link registrarEmergencia to MembroComando--><g id="link_registrarEmergencia_MembroComando"><path d="M362.21,264 C382.88,264 398.34,264 417.41,264 " fill="none" id="registrarEmergencia-backto-MembroComando" style="stroke:#181818;stroke-width:1.0;"/><polygon fill="#181818" points="356.21,264,365.21,268,361.21,264,365.21,260,356.21,264" style="stroke:#181818;stroke-width:1.0;"/></g><!--reverse link fazerLogin to MembroComando--><g id="link_fazerLogin_MembroComando"><path d="M323.8469,136.9695 C344.7669,141.9495 362.51,148.25 381.77,160 C409.17,176.71 433.76,203.27 451.32,225.37 " fill="none" id="fazerLogin-backto-MembroComando" style="stroke:#181818;stroke-width:1.0;"/><polygon fill="#181818" points="318.01,135.58,325.839,141.5555,322.8741,136.7379,327.6917,133.7729,318.01,135.58" style="stroke:#181818;stroke-width:1.0;"/></g><!--reverse link fazerLogoff to MembroComando--><g id="link_fazerLogoff_MembroComando"><path d="M315.6714,206.1584 C337.5314,212.0784 358.29,218.11 381.77,226 C393.43,229.92 405.74,234.44 417.53,238.96 " fill="none" id="fazerLogoff-backto-MembroComando" style="stroke:#181818;stroke-width:1.0;"/><polygon fill="#181818" points="309.88,204.59,317.5215,210.8035,314.7062,205.897,319.6127,203.0817,309.88,204.59" style="stroke:#181818;stroke-width:1.0;"/></g><!--reverse link acessarEstoque to MembroComando--><g id="link_acessarEstoque_MembroComando"><path d="M337.6756,545.4194 C355.6256,540.2494 368.06,533.78 381.77,521 C444.73,462.3 467.13,358.61 474.86,302.56 " fill="none" id="acessarEstoque-backto-MembroComando" style="stroke:#181818;stroke-width:1.0;"/><polygon fill="#181818" points="331.91,547.08,341.6655,548.4328,336.7147,545.6961,339.4513,540.7453,331.91,547.08" style="stroke:#181818;stroke-width:1.0;"/></g><!--reverse link cadastrarSuprimento to MembroComando--><g id="link_cadastrarSuprimento_MembroComando"><path d="M340.8302,465.998 C357.3902,460.268 368.41,454.21 381.77,443 C426.04,405.85 453.33,343.14 467.27,302.67 " fill="none" id="cadastrarSuprimento-backto-MembroComando" style="stroke:#181818;stroke-width:1.0;"/><polygon fill="#181818" points="335.16,467.96,344.9732,468.7972,339.8851,466.325,342.3573,461.237,335.16,467.96" style="stroke:#181818;stroke-width:1.0;"/></g><!--reverse link manterCadastro to MembroComando--><g id="link_manterCadastro_MembroComando"><path d="M334.6267,70.4615 C353.1167,75.6515 366.6,81.94 381.77,94 C424.73,128.15 452.09,186.87 466.44,225.57 " fill="none" id="manterCadastro-backto-MembroComando" style="stroke:#181818;stroke-width:1.0;"/><polygon fill="#181818" points="328.85,68.84,336.4341,75.1234,333.664,70.1912,338.5961,67.4211,328.85,68.84" style="stroke:#181818;stroke-width:1.0;"/></g><!--reverse link mensagem to MembroComando--><g id="link_mensagem_MembroComando"><path d="M332.2009,393.0132 C350.8909,387.5732 365.11,381.6 381.77,371 C409.7,353.24 434.61,325.34 452.2,302.49 " fill="none" id="mensagem-backto-MembroComando" style="stroke:#181818;stroke-width:1.0;"/><polygon fill="#181818" points="326.44,394.69,336.1993,396.0154,331.2408,393.2927,333.9635,388.3342,326.44,394.69" style="stroke:#181818;stroke-width:1.0;"/></g><!--SRC=[VP9DRiCW48Ntd6AKlIzWLPKYrrqrc-O44pocenfm06VHgdSlmJyj4GaxtliUVWmUg0yGB3XM7m4wTYG3MoD6b9-e25we9uyDNtY0Rm5nJPuaUeBTNfBtw81yiEU9Te0USDRQMShv1ZlqmSM4dqR7caomAIHNuxZfUR8r5uwnwFZOIQVGkid9Tv9q8WSua0kOG3TB-wJSqehdHgJ9AJAIrynYj9kU9r_nAtvbiChsVKhqL-4jxU-GR3AGJSuTq8G8BhEO1wEJjipDYXyXwWFfaxFjUUAHQgYgv_y7Fd2llGfsFfm2SFEW1M9x256O6ZnL5IoXniRxTBO6yLVviHzBbu6yLPaf_5LbC9_o7MQvPDdz1G00]--></g></svg>